<svg height="51" viewBox="0 0 59 51" width="59" xmlns="http://www.w3.org/2000/svg" xmlns:xlink="http://www.w3.org/1999/xlink"><defs><linearGradient id="a" x1="0%" x2="101.999998%" y1="0%" y2="100.999999%"><stop offset="0" stop-color="#454fb2"/><stop offset="1" stop-color="#b81a6c"/></linearGradient><path id="b" d="m45.528 16.863c-2.253 0-4.131 1.617-4.546 3.75l-3.432-2.352c-.225-.155-.538-.097-.694.13-.156.228-.099.539.13.695l3.522 2.414-3.522 2.414c-.229.156-.286.467-.13.694.097.142.253.218.412.218.098 0 .196-.028.282-.088l3.432-2.352c.415 2.134 2.293 3.749 4.546 3.749 2.558 0 4.639-2.079 4.639-4.636 0-2.555-2.081-4.636-4.639-4.636z"/><filter id="c" height="283.3%" width="226.9%" x="-63.4%" y="-70.1%"><feOffset dx="0" dy="2" in="SourceAlpha" result="shadowOffsetOuter1"/><feGaussianBlur in="shadowOffsetOuter1" result="shadowBlurOuter1" stdDeviation="2.5"/><feColorMatrix in="shadowBlurOuter1" type="matrix" values="0 0 0 0 0   0 0 0 0 0   0 0 0 0 0  0 0 0 0.5 0"/></filter><path id="d" d="m45.528 32.975c-2.253 0-4.131 1.616-4.546 3.749l-3.433-2.351c-.226-.156-.537-.099-.694.13-.156.228-.099.539.13.694l3.936 2.695c.149 2.424 2.147 4.356 4.607 4.356 2.558 0 4.639-2.081 4.639-4.639 0-2.555-2.081-4.634-4.639-4.634z"/><filter id="e" height="283.3%" width="226.9%" x="-63.4%" y="-70.1%"><feOffset dx="0" dy="2" in="SourceAlpha" result="shadowOffsetOuter1"/><feGaussianBlur in="shadowOffsetOuter1" result="shadowBlurOuter1" stdDeviation="2.5"/><feColorMatrix in="shadowBlurOuter1" type="matrix" values="0 0 0 0 0   0 0 0 0 0   0 0 0 0 0  0 0 0 0.5 0"/></filter><path id="f" d="m14.144 18.391c-.157-.227-.468-.285-.695-.13l-3.432 2.351c-.416-2.133-2.294-3.749-4.547-3.749-2.557 0-4.637 2.08-4.637 4.637s2.08 4.637 4.637 4.637c2.253 0 4.131-1.616 4.547-3.749l3.432 2.351c.086.06.185.088.282.088.159 0 .316-.076.413-.218.156-.228.098-.539-.13-.694l-3.523-2.415 3.522-2.414c.228-.156.286-.467.131-.695z"/><filter id="g" height="283.3%" width="226.9%" x="-63.4%" y="-70.1%"><feOffset dx="0" dy="2" in="SourceAlpha" result="shadowOffsetOuter1"/><feGaussianBlur in="shadowOffsetOuter1" result="shadowBlurOuter1" stdDeviation="2.5"/><feColorMatrix in="shadowBlurOuter1" type="matrix" values="0 0 0 0 0   0 0 0 0 0   0 0 0 0 0  0 0 0 0.5 0"/></filter><path id="h" d="m17.239 16.771c.097 0 .196-.028.282-.087l3.432-2.351c.416 2.133 2.293 3.749 4.546 3.749 2.254 0 4.132-1.616 4.548-3.75l3.432 2.352c.086.059.185.087.282.087.159 0 .315-.076.412-.217.156-.228.099-.539-.13-.695l-3.522-2.414 3.522-2.414c.229-.156.286-.467.13-.695s-.467-.285-.694-.13l-3.432 2.352c-.415-2.134-2.294-3.75-4.548-3.75-2.459 0-4.458 1.931-4.607 4.354l-3.936 2.697c-.228.156-.286.467-.13.695.097.14.254.217.413.217z"/><filter id="i" height="283.3%" width="197%" x="-48.5%" y="-70.1%"><feOffset dx="0" dy="2" in="SourceAlpha" result="shadowOffsetOuter1"/><feGaussianBlur in="shadowOffsetOuter1" result="shadowBlurOuter1" stdDeviation="2.5"/><feColorMatrix in="shadowBlurOuter1" type="matrix" values="0 0 0 0 0   0 0 0 0 0   0 0 0 0 0  0 0 0 0.5 0"/></filter><path id="j" d="m37.269 8.714c.098 0 .196-.028.282-.087l3.432-2.352c.415 2.134 2.293 3.75 4.546 3.75 2.558 0 4.639-2.081 4.639-4.638s-2.081-4.637-4.639-4.637c-2.46 0-4.458 1.931-4.607 4.354l-3.935 2.697c-.229.156-.286.467-.13.695.096.142.252.218.412.218z"/><filter id="k" height="283.3%" width="226.9%" x="-63.4%" y="-70.1%"><feOffset dx="0" dy="2" in="SourceAlpha" result="shadowOffsetOuter1"/><feGaussianBlur in="shadowOffsetOuter1" result="shadowBlurOuter1" stdDeviation="2.5"/><feColorMatrix in="shadowBlurOuter1" type="matrix" values="0 0 0 0 0   0 0 0 0 0   0 0 0 0 0  0 0 0 0.5 0"/></filter><path id="l" d="m30.521 29.558 3.522-2.414c.229-.156.286-.467.13-.694s-.467-.286-.694-.13l-3.432 2.352c-.415-2.134-2.294-3.752-4.548-3.752-2.252 0-4.131 1.617-4.546 3.752l-3.432-2.352c-.229-.157-.539-.099-.695.13-.156.228-.098.539.13.694l3.936 2.697c.149 2.423 2.147 4.353 4.607 4.353 2.254 0 4.133-1.616 4.548-3.749l3.433 2.351c.086.06.185.088.282.088.159 0 .315-.076.412-.218.156-.228.099-.539-.13-.694z"/><filter id="m" height="283.3%" width="197%" x="-48.5%" y="-70.1%"><feOffset dx="0" dy="2" in="SourceAlpha" result="shadowOffsetOuter1"/><feGaussianBlur in="shadowOffsetOuter1" result="shadowBlurOuter1" stdDeviation="2.5"/><feColorMatrix in="shadowBlurOuter1" type="matrix" values="0 0 0 0 0   0 0 0 0 0   0 0 0 0 0  0 0 0 0.5 0"/></filter></defs><g fill="none" transform="translate(4 2)"><g><use fill="#000" filter="url(#c)" xlink:href="#b"/><use fill="url(#a)" fill-rule="evenodd" xlink:href="#b"/></g><g><use fill="#000" filter="url(#e)" xlink:href="#d"/><use fill="url(#a)" fill-rule="evenodd" xlink:href="#d"/></g><g><use fill="#000" filter="url(#g)" xlink:href="#f"/><use fill="url(#a)" fill-rule="evenodd" xlink:href="#f"/></g><g><use fill="#000" filter="url(#i)" xlink:href="#h"/><use fill="url(#a)" fill-rule="evenodd" xlink:href="#h"/></g><g><use fill="#000" filter="url(#k)" xlink:href="#j"/><use fill="url(#a)" fill-rule="evenodd" xlink:href="#j"/></g><g><use fill="#000" filter="url(#m)" xlink:href="#l"/><use fill="url(#a)" fill-rule="evenodd" xlink:href="#l"/></g></g></svg>